<?xml version="1.0" encoding="iso-8859-1"?>
<!-- Generator: Adobe Illustrator 19.0.0, SVG Export Plug-In . SVG Version: 6.00 Build 0)  -->
<svg version="1.1" id="Layer_1" xmlns="http://www.w3.org/2000/svg" xmlns:xlink="http://www.w3.org/1999/xlink" x="0px" y="0px"
	 viewBox="0 0 512.001 512.001" style="enable-background:new 0 0 512.001 512.001;" xml:space="preserve">
<path style="fill:#9F8976;" d="M256.001,96.831c66.065,0,102.125,36.675,116.659,67.562c8.52,18.107,15.47,37.588,15.47,59.128
	c0,43.813-16.516,160.473-16.516,160.473c-8.258,52.084-24.332,79.804-66.063,84.043h-49.551H206.45
	c-41.73-4.238-57.805-31.959-66.063-84.042c0,0-16.516-116.66-16.516-160.473c0-21.539,6.95-41.021,15.47-59.127
	C153.876,133.506,189.936,96.831,256.001,96.831z"/>
<path style="fill:#FFEBD2;" d="M198.194,430.33c0,47.362,25.881,62.888,57.807,62.888s57.807-15.526,57.807-62.888H198.194z"/>
<path style="fill:#FFFFFF;" d="M330.323,403.264c0,36.649-33.275,48.664-74.323,48.664s-74.323-12.014-74.323-48.664
	s33.275-75.207,74.323-75.207S330.323,366.615,330.323,403.264z"/>
<g>
	<circle style="fill:#464655;" cx="165.162" cy="245.472" r="16.516"/>
	<circle style="fill:#464655;" cx="346.839" cy="245.472" r="16.516"/>
	<path style="fill:#464655;" d="M296.783,404.881c0.147-0.455,0.398-0.879,0.465-1.352c0.108-0.773-0.01-1.556-0.123-2.333
		c-0.04-0.277,0.024-0.555-0.044-0.827c-0.129-0.511-0.464-0.965-0.694-1.451c-0.237-0.505-0.371-1.042-0.719-1.505
		c0,0-0.005-0.004-0.007-0.006v-0.001c-2.571-3.426-7.266-4.157-10.832-1.969c-0.234,0.142-0.502,0.179-0.726,0.347l-1.967,1.486
		c-0.408,0.308-0.792,0.598-1.212,0.915c-14.604,11.009-35.017,11.04-49.652,0.074l-3.315-2.484
		c-1.766-1.325-3.886-1.795-5.916-1.555c-0.068,0.008-0.136-0.02-0.204-0.01c-0.435,0.063-0.823,0.299-1.243,0.43
		c-1.602,0.495-3.11,1.341-4.193,2.788c-2.742,3.645-2.001,8.823,1.654,11.556l3.306,2.484c0.01,0.008,0.022,0.012,0.033,0.021
		l29.693,22.27c1.46,1.097,3.202,1.654,4.952,1.654c1.597,0,3.194-0.459,4.588-1.387c1.853-1.24,20.802-15.525,30.233-22.648
		c0.01-0.008,0.023-0.013,0.033-0.022l3.145-2.379l0.005-0.006l0.002-0.002c0.148-0.111,0.215-0.28,0.353-0.398
		c0.711-0.615,1.371-1.276,1.82-2.053C296.513,406.009,296.605,405.432,296.783,404.881z"/>
</g>
<g>
	<path style="fill:#877364;" d="M90.839,319.799c-27.871,21.161-35.957-89.634,48.86-187.183c0,0-59.831-22.361-75.011-11.011
		c-43.142,32.257-30.279,213.333-30.279,213.333l34.408,12.387L90.839,319.799z"/>
	<path style="fill:#877364;" d="M156.904,171.153c74.323-8.258,82.581-66.065,82.581-66.065
		C231.226,63.798,99.097-56.976,27.871,88.573c0,0,80.86,2.065,82.925,4.129C112.86,94.766,156.904,171.153,156.904,171.153"/>
</g>
<path style="fill:#9F8976;" d="M90.839,319.799C74.323,402.38,0,369.347,0,195.928C0,122.243,41.29,39.024,74.323,39.024
	c66.065,0,82.581,132.129,82.581,132.129S46.452,53.476,46.452,268.186C46.452,375.541,90.839,319.799,90.839,319.799z"/>
<g>
	<path style="fill:#877364;" d="M421.162,319.799c27.871,21.161,35.957-89.634-48.86-187.183c0,0,59.831-22.361,75.011-11.011
		c43.142,32.257,30.279,213.333,30.279,213.333l-34.408,12.387L421.162,319.799z"/>
	<path style="fill:#877364;" d="M355.098,171.153c-74.323-8.258-82.581-66.065-82.581-66.065
		c8.258-41.29,140.387-162.065,211.613-16.516c0,0-80.86,2.065-82.925,4.129C399.14,94.766,355.098,171.153,355.098,171.153"/>
</g>
<g>
	<path style="fill:#9F8976;" d="M421.162,319.799c16.516,82.581,90.839,49.548,90.839-123.871
		c0-73.685-41.29-156.904-74.323-156.904c-66.065,0-82.581,132.129-82.581,132.129s110.452-117.678,110.452,97.032
		C465.549,375.541,421.162,319.799,421.162,319.799z"/>
	<path style="fill:#9F8976;" d="M164.598,199.299c0,0-36.276-43.531-102.028-35.388c-8.497,1.052-14.28,9.178-12.787,17.607
		c3.551,20.037,18.994,53.363,81.782,59.071L164.598,199.299z"/>
</g>
<path style="fill:#CFBAA4;" d="M82.162,163.051c-6.229-0.171-12.709,0.006-19.591,0.859c-8.496,1.053-14.28,9.178-12.787,17.607
	c3.55,20.037,18.994,53.363,81.782,59.071C131.566,240.589,138.469,184.971,82.162,163.051z"/>
<path style="fill:#9F8976;" d="M347.403,199.299c0,0,36.276-43.531,102.028-35.388c8.497,1.052,14.28,9.178,12.787,17.607
	c-3.551,20.037-18.994,53.363-81.782,59.071L347.403,199.299z"/>
<path style="fill:#CFBAA4;" d="M429.839,163.051c6.229-0.171,12.71,0.006,19.591,0.859c8.496,1.053,14.28,9.178,12.787,17.607
	c-3.55,20.037-18.994,53.363-81.782,59.071C380.435,240.589,373.532,184.971,429.839,163.051z"/>
<g>
</g>
<g>
</g>
<g>
</g>
<g>
</g>
<g>
</g>
<g>
</g>
<g>
</g>
<g>
</g>
<g>
</g>
<g>
</g>
<g>
</g>
<g>
</g>
<g>
</g>
<g>
</g>
<g>
</g>
</svg>
